<svg id="Capa_1" enable-background="new 0 0 512 512" height="240" viewBox="0 0 512 512" width="240"
                xmlns="http://www.w3.org/2000/svg">
                <g>
                    <path
                        d="m492.88 122.58-107.88 30.82-102.12 29.18c-6.44 1.84-10.88 7.72-10.88 14.42v206.815c-12.124-7.309-27.419-11.815-45-11.815-44.461 0-75 28.991-75 60 0 30.692 30.097 60 75 60 44.461 0 75-28.991 75-60v-183.69l83-23.71 97-27.71v126.925c-12.124-7.309-27.419-11.815-45-11.815-44.461 0-75 28.991-75 60 0 30.692 30.097 60 75 60 44.461 0 75-28.991 75-60v-255c0-9.99-9.57-17.15-19.12-14.42z"
                        fill="#ff641a" />
                    <path
                        d="m482 216.89v126.925c-12.124-7.309-27.419-11.815-45-11.815-44.461 0-75 28.991-75 60 0 30.692 30.097 60 75 60 44.461 0 75-28.991 75-60v-255c0-9.99-9.57-17.15-19.12-14.42l-107.88 30.82v91.2z"
                        fill="#dd3400" />
                    <path
                        d="m330 15c0-8.28-6.72-15-15-15h-90c-57.9 0-105 47.1-105 105v45 73.817c-12.124-7.31-27.42-11.817-45-11.817-44.46 0-75 28.99-75 60 0 30.69 30.1 60 75 60 44.46 0 75-28.99 75-60v-122h45c36.22 0 66.53-25.81 73.49-60l-13.74-13 60.21-17c9.44-12.54 15.04-28.13 15.04-45z"
                        fill="#ffdf8e" />
                    <path
                        d="m150 272v-122h45c36.22 0 66.53-25.81 73.49-60l-13.74-13 60.21-17c9.44-12.54 15.04-28.13 15.04-45 0-8.28-6.72-15-15-15h-90c-57.9 0-105 47.1-105 105v45 73.817c-12.124-7.31-27.42-11.817-45-11.817v120c44.46 0 75-28.99 75-60z"
                        fill="#ffb64c" />
                    <g>
                        <path
                            d="m314.96 60c-11.07 14.72-27.43 25.25-46.22 28.74-.08.42-.16.84-.25 1.26h-73.49c-8.28 0-15-6.72-15-15s6.72-15 15-15z"
                            fill="#ff9100" />
                    </g>
                </g>
            </svg>